SplineFontDB: 3.0
FontName: Agypta
FullName: Agypta
FamilyName: Agypta
Weight: Semi-Bold
Copyright: Created by Guillaume Ayoub with FontForge 2.0 (http://fontforge.sf.net)
UComments: "2013-7-28: Created." 
Version: 001.000
ItalicAngle: 0
UnderlinePosition: -100
UnderlineWidth: 50
Ascent: 750
Descent: 250
LayerCount: 2
Layer: 0 0 "Arri+AOgA-re"  1
Layer: 1 0 "Avant"  0
XUID: [1021 779 1303216649 2718556]
FSType: 8
OS2Version: 0
OS2_WeightWidthSlopeOnly: 0
OS2_UseTypoMetrics: 1
CreationTime: 1375026792
ModificationTime: 1395866599
PfmFamily: 17
TTFWeight: 600
TTFWidth: 5
LineGap: 90
VLineGap: 0
OS2TypoAscent: 0
OS2TypoAOffset: 1
OS2TypoDescent: 0
OS2TypoDOffset: 1
OS2TypoLinegap: 90
OS2WinAscent: 0
OS2WinAOffset: 1
OS2WinDescent: 0
OS2WinDOffset: 1
HheadAscent: 0
HheadAOffset: 1
HheadDescent: 0
HheadDOffset: 1
OS2Vendor: 'PfEd'
Lookup: 258 0 0 "kerning"  {"kerning" [150,20,0] } ['kern' ('DFLT' <'dflt' > 'latn' <'dflt' > ) ]
MarkAttachClasses: 1
DEI: 91125
KernClass2: 10 9 "kerning" 
 5 A L R
 3 D O
 5 F P T
 5 V W Y
 3 a u
 7 b e o p
 1 f
 5 h m n
 5 v w y
 1 A
 7 C G O Q
 1 T
 5 V W Y
 3 b t
 1 u
 11 c d e g o q
 5 v w y
 0 {} 0 {} 0 {} 0 {} 0 {} 0 {} 0 {} 0 {} 0 {} 0 {} 0 {} -40 {} -80 {} -90 {} -20 {} -80 {} 0 {} -100 {} 0 {} -20 {} 20 {} 0 {} -20 {} 0 {} 0 {} 0 {} 0 {} 0 {} -110 {} -10 {} 0 {} 0 {} 0 {} 0 {} -60 {} 0 {} 0 {} -100 {} -50 {} 0 {} 0 {} 0 {} -80 {} -70 {} -40 {} 0 {} 0 {} -20 {} -40 {} -40 {} -30 {} -60 {} 0 {} -60 {} 0 {} 0 {} 0 {} -20 {} -40 {} -20 {} 0 {} 0 {} 0 {} 0 {} 0 {} 0 {} 20 {} 20 {} 30 {} 0 {} 0 {} 0 {} 0 {} 0 {} -20 {} -80 {} -50 {} -20 {} -80 {} 0 {} -50 {} 0 {} -100 {} 0 {} 0 {} 0 {} 0 {} 0 {} -10 {} 0 {}
Encoding: UnicodeFull
UnicodeInterp: none
NameList: Adobe Glyph List
DisplaySize: -36
AntiAlias: 1
FitToEm: 1
WinInfo: 43 43 4
BeginPrivate: 1
BlueValues 41 [-210 -200 -10 0 500 510 650 660 700 710]
EndPrivate
BeginChars: 1114112 98

StartChar: H
Encoding: 72 72 0
Width: 790
VWidth: 0
Flags: W
HStem: 0 100<50 150 250 350 440 540 640 740> 300 100<250 540> 550 100<50 150 250 350 440 540 640 740>
VStem: 50 300<0 100 550 650> 150 100<100 300 400 550> 440 300<0 100 550 650> 540 100<100 300 400 550>
LayerCount: 2
Fore
SplineSet
50 650 m 25xf0
 350 650 l 25
 350 550 l 25xf0
 250 550 l 25
 250 400 l 25
 540 400 l 25
 540 550 l 25xea
 440 550 l 25
 440 650 l 25
 740 650 l 25
 740 550 l 25xe4
 640 550 l 25
 640 100 l 25xe2
 740 100 l 25
 740 0 l 25
 440 0 l 25
 440 100 l 25xe4
 540 100 l 25
 540 300 l 25
 250 300 l 25
 250 100 l 25xea
 350 100 l 25
 350 0 l 25
 50 0 l 25
 50 100 l 25xf0
 150 100 l 25
 150 550 l 25xe8
 50 550 l 25
 50 650 l 25xf0
EndSplineSet
EndChar

StartChar: I
Encoding: 73 73 1
Width: 400
VWidth: 0
Flags: W
HStem: 0 100<50 150 250 350> 550 100<50 150 250 350>
VStem: 50 300<0 100 550 650>
LayerCount: 2
Fore
SplineSet
250 100 m 25
 350 100 l 25
 350 0 l 25
 50 0 l 25
 50 100 l 25
 150 100 l 25
 150 550 l 25
 50 550 l 25
 50 650 l 25
 350 650 l 25
 350 550 l 25
 250 550 l 25
 250 100 l 25
EndSplineSet
EndChar

StartChar: L
Encoding: 76 76 2
Width: 620
VWidth: 0
Flags: W
HStem: 0 100<50 150 250 470> 550 100<50 150 250 350>
VStem: 150 100<100 550> 470 100<100 190>
LayerCount: 2
Fore
SplineSet
470 190 m 1
 570 190 l 9
 570 0 l 25
 50 0 l 25
 50 100 l 25
 150 100 l 25
 150 550 l 25
 50 550 l 25
 50 650 l 25
 350 650 l 25
 350 550 l 25
 250 550 l 25
 250 100 l 17
 470 100 l 1
 470 190 l 1
EndSplineSet
EndChar

StartChar: E
Encoding: 69 69 3
Width: 630
VWidth: 0
Flags: W
HStem: 0 100<50 150 250 480> 300 100<250 390> 550 100<50 150 250 480>
VStem: 150 100<100 300 400 550> 480 100<100 190 460 550>
LayerCount: 2
Fore
SplineSet
50 650 m 1
 580 650 l 1
 580 460 l 1
 480 460 l 1
 480 550 l 1
 250 550 l 1
 250 400 l 1
 390 400 l 5
 390 300 l 1
 250 300 l 1
 250 100 l 1
 480 100 l 1
 480 190 l 1
 580 190 l 1
 580 0 l 1
 50 0 l 1
 50 100 l 1
 150 100 l 1
 150 550 l 1
 50 550 l 1
 50 650 l 1
EndSplineSet
EndChar

StartChar: F
Encoding: 70 70 4
Width: 630
VWidth: 0
Flags: W
HStem: 0 100<50 150 250 350> 300 100<250 390> 550 100<50 150 250 480>
VStem: 150 100<100 300 400 550> 480 100<458 550>
LayerCount: 2
Fore
SplineSet
350 0 m 1
 50 0 l 1
 50 100 l 1
 150 100 l 1
 150 550 l 1
 50 550 l 1
 50 650 l 1
 580 648 l 1
 580 458 l 1
 480 458 l 1
 480 550 l 5
 250 550 l 1
 250 400 l 1
 390 400 l 1
 390 300 l 1
 250 300 l 1
 250 100 l 1
 350 100 l 1
 350 0 l 1
EndSplineSet
EndChar

StartChar: J
Encoding: 74 74 5
Width: 370
VWidth: 0
Flags: W
HStem: -210 100<-10 110.538> 550 100<50 150 250 350>
VStem: 150 100<-73.5952 550>
LayerCount: 2
Fore
SplineSet
250 0 m 18
 250 -146 228.008 -210 -24 -210 c 0
 -10 -110 l 0
 126 -110 150 -80 150 0 c 10
 150 550 l 25
 50 550 l 25
 50 650 l 25
 350 650 l 25
 350 550 l 25
 250 550 l 25
 250 0 l 18
EndSplineSet
EndChar

StartChar: a
Encoding: 97 97 6
Width: 595
VWidth: 0
Flags: W
HStem: -10 95<150.335 286.668> 0 100<465 565> 420 90<175.34 342.789>
VStem: 40 100<96.2677 168.204> 60 100<320 401.413> 370 95<139.628 250 334.688 394.66>
LayerCount: 2
Fore
SplineSet
370 250 m 21xb4
 286 204 140 196.008 140 136 c 7
 140 111.917 159.943 85 195 85 c 7
 262.357 85 343 131 370 155 c 13
 370 250 l 21xb4
60 320 m 29xac
 60 422 l 22
 60 476 174.783 510 260 510 c 31
 359.066 510 465 494 465 360 c 14
 465 100 l 29
 565 100 l 29
 565 0 l 29
 370 0 l 29x6c
 370 50 l 21
 269 -9 231.074 -10 170 -10 c 7
 98.9932 -10 40 48.2002 40 130 c 7xb4
 40 294 370 299 370 360 c 7
 370 398 308.867 420 260 420 c 23
 212.051 420 160 397.047 160 382 c 14
 160 320 l 29
 60 320 l 29xac
EndSplineSet
EndChar

StartChar: dotlessi
Encoding: 305 305 7
Width: 380
VWidth: 0
Flags: W
HStem: 0 100<50 150 250 350> 400 100<50 150>
VStem: 150 100<100 400>
LayerCount: 2
Fore
SplineSet
250 100 m 25
 350 100 l 25
 350 0 l 25
 50 0 l 25
 50 100 l 25
 150 100 l 25
 150 400 l 25
 50 400 l 25
 50 500 l 25
 250 500 l 25
 250 100 l 25
EndSplineSet
EndChar

StartChar: uni0237
Encoding: 567 567 8
Width: 300
VWidth: 0
Flags: W
HStem: -210 100<-10 110.538> 400 100<50 150>
VStem: 150 100<-73.5952 400>
LayerCount: 2
Fore
SplineSet
250 0 m 18
 250 -146 228.008 -210 -24 -210 c 4
 -10 -110 l 0
 126 -110 150 -80 150 0 c 10
 150 400 l 25
 50 400 l 25
 50 500 l 25
 250 500 l 25
 250 0 l 18
EndSplineSet
EndChar

StartChar: l
Encoding: 108 108 9
Width: 380
VWidth: 0
Flags: W
HStem: 0 100<50 150 250 350> 600 100<50 150>
VStem: 150 100<100 600>
LayerCount: 2
Fore
SplineSet
250 100 m 25
 350 100 l 25
 350 0 l 25
 50 0 l 25
 50 100 l 25
 150 100 l 25
 150 600 l 25
 50 600 l 25
 50 700 l 25
 250 700 l 25
 250 100 l 25
EndSplineSet
EndChar

StartChar: p
Encoding: 112 112 10
Width: 650
VWidth: 0
Flags: W
HStem: -200 100<40 140 240 340> -10 100<278.832 453.612> 400 100<40 140> 410 100<323.166 453.352>
VStem: 140 100<-100 30 118.215 325.924> 500 110<144.713 355.287>
LayerCount: 2
Fore
SplineSet
240 130 m 5xdc
 240 130 297.824 90 400 90 c 7
 473.585 90 500 176.415 500 250 c 31
 500 323.585 473.585 410 400 410 c 31
 311.753 410 240 330 240 250 c 6
 240 130 l 5xdc
240 30 m 5
 240 -100 l 13
 340 -100 l 29
 340 -200 l 29
 40 -200 l 29
 40 -100 l 29
 140 -100 l 29
 140 400 l 29
 40 400 l 29
 40 500 l 29
 240 500 l 21
 240 400 l 5xec
 256 458 331.031 510 410 510 c 7
 550.014 510 610 377.93 610 250 c 31
 610 122.07 552.014 -10 410 -10 c 7
 299.927 -10 240 30 240 30 c 5
EndSplineSet
EndChar

StartChar: period
Encoding: 46 46 11
Width: 240
VWidth: 0
Flags: W
HStem: 0 130<75.11 164.89>
VStem: 60 120<15.2949 114.705>
LayerCount: 2
Fore
SplineSet
120 130 m 31
 154.499 130 180 99.499 180 65 c 27
 180 30.501 154.499 0 120 0 c 27
 85.501 0 60 30.501 60 65 c 27
 60 99.499 85.501 130 120 130 c 31
EndSplineSet
EndChar

StartChar: b
Encoding: 98 98 14
Width: 620
VWidth: 0
Flags: W
HStem: -10 100<212.135 421.603> 410 100<293.166 423.352> 600 100<10 110>
VStem: 110 100<102.78 325.924 400 600> 470 110<140.805 355.287>
LayerCount: 2
Fore
SplineSet
210 110 m 1
 210 110 247.824 90 350 90 c 3
 455.005 90 470 172 470 250 c 27
 470 323.585 443.585 410 370 410 c 27
 281.753 410 210 330 210 250 c 2
 210 110 l 1
110 40 m 9
 110 600 l 25
 10 600 l 25
 10 700 l 25
 210 700 l 17
 210 400 l 1
 226 458 301.031 510 380 510 c 3
 520.014 510 580 377.93 580 250 c 27
 580 114.619 531.276 -10 350 -10 c 3
 213.875 -10 110 40 110 40 c 9
EndSplineSet
EndChar

StartChar: o
Encoding: 111 111 15
Width: 600
VWidth: 0
Flags: W
HStem: -10 100<223.153 378.067> 410 100<221.266 382.014>
VStem: 40 110<167.489 335.764> 450 110<165.85 338.766>
LayerCount: 2
Fore
SplineSet
300 410 m 3
 201.816 410 150 335.533 150 250 c 27
 150 164.467 211.978 90 300 90 c 3
 396.021 90 450 164.467 450 250 c 27
 450 335.533 402.02 410 300 410 c 3
300 -10 m 3
 157.986 -10 40 106.599 40 250 c 27
 40 393.401 159.986 510 300 510 c 3
 437.014 510 560 393.401 560 250 c 27
 560 106.599 439.014 -10 300 -10 c 3
EndSplineSet
EndChar

StartChar: r
Encoding: 114 114 16
Width: 570
VWidth: 0
Flags: W
HStem: 0 100<50 150 260 360> 400 100<50 150> 410 100<341.926 515.706>
VStem: 150 110<100 325.924>
LayerCount: 2
Fore
SplineSet
550 370 m 1xb0
 484.5 408.5 467.605 410 410 410 c 3xb0
 334.275 410 260 330 260 250 c 2
 260 100 l 9
 360 100 l 25
 360 0 l 25
 50 0 l 25
 50 100 l 25
 150 100 l 25
 150 400 l 25
 50 400 l 25
 50 500 l 25
 250 500 l 21
 250 400 l 5xd0
 266 458 341.031 510 420 510 c 3
 462.512 510 513 504 550 470 c 1
 550 370 l 1xb0
EndSplineSet
EndChar

StartChar: e
Encoding: 101 101 17
Width: 530
VWidth: 0
Flags: W
HStem: -10 100<193.599 415.397> 230 90<147.312 383.55> 410 100<201.001 336.884>
VStem: 30 101.139<148.931 230>
LayerCount: 2
Fore
SplineSet
131.139 230 m 1
 132 140 188.979 90 280 90 c 7
 405.536 90 463 132.5 480 150 c 5
 480 50 l 5
 464.5 33 412.565 -10 290 -10 c 7
 113.999 -10 30 106.599 30 250 c 3
 30 393.401 129.986 510 270 510 c 3
 407.014 510 500 403.333 500 230 c 1
 131.139 230 l 1
383.55 320 m 1
 361.696 367.138 337.771 410 270 410 c 3
 204.776 410 170.015 367.138 147.312 320 c 1
 383.55 320 l 1
EndSplineSet
EndChar

StartChar: n
Encoding: 110 110 18
Width: 730
VWidth: 0
Flags: W
HStem: 0 100<40 140 250 340 400 490 600 700> 400 100<40 140> 410 100<319.791 446.498>
VStem: 140 110<100 318.638> 490 110<100 363.609>
LayerCount: 2
Fore
SplineSet
600 100 m 9xb8
 700 100 l 25
 700 0 l 25
 400 0 l 25
 400 100 l 25
 490 100 l 25
 490 250 l 2
 490 365 455.725 410 380 410 c 27xb8
 283.677 410 250 280 250 200 c 2
 250 100 l 9
 340 100 l 25
 340 0 l 25
 40 0 l 25
 40 100 l 25
 140 100 l 25
 140 400 l 25
 40 400 l 25
 40 500 l 25
 240 500 l 17
 240 400 l 1xd8
 256 458 311.031 510 390 510 c 3
 530.014 510 600 423 600 250 c 10
 600 100 l 9xb8
EndSplineSet
EndChar

StartChar: h
Encoding: 104 104 19
Width: 720
VWidth: 0
Flags: W
HStem: 0 100<50 150 250 340 400 490 590 690> 410 100<314.72 448.964> 600 100<50 150>
VStem: 150 100<100 338.982 400 600> 490 100<100 363.609>
LayerCount: 2
Fore
SplineSet
590 100 m 9
 690 100 l 25
 690 0 l 25
 400 0 l 25
 400 100 l 25
 490 100 l 25
 490 250 l 2
 490 365 455.725 410 380 410 c 27
 299.6 410 250 330 250 250 c 2
 250 100 l 9
 340 100 l 25
 340 0 l 25
 50 0 l 25
 50 100 l 25
 150 100 l 25
 150 600 l 25
 50 600 l 25
 50 700 l 25
 250 700 l 17
 250 400 l 1
 266 458 311.031 510 390 510 c 3
 530.014 510 590 423 590 250 c 10
 590 100 l 9
EndSplineSet
EndChar

StartChar: M
Encoding: 77 77 20
Width: 870
VWidth: 0
Flags: W
HStem: 0 100<50 150 250 350 520 620 720 820> 550 100<50 150 720 820>
VStem: 150 100<100 451> 620 100<100 451>
LayerCount: 2
Fore
SplineSet
435 163 m 1
 250 451 l 1
 250 100 l 1
 350 100 l 1
 350 0 l 1
 50 0 l 1
 50 100 l 1
 150 100 l 1
 150 550 l 1
 50 550 l 1
 50 650 l 1
 250 651 l 1
 435 363.293 l 1
 620 651 l 1
 820 650 l 1
 820 550 l 1
 720 550 l 1
 720 100 l 1
 820 100 l 1
 820 0 l 1
 520 0 l 1
 520 100 l 1
 620 100 l 1
 620 451 l 1
 435 163 l 1
EndSplineSet
EndChar

StartChar: D
Encoding: 68 68 21
Width: 680
VWidth: 0
Flags: W
HStem: 0 100<50 150 250 397.573> 560 100<50 150 250 380.398>
VStem: 150 100<100 560> 540 110<213.104 411.973>
LayerCount: 2
Fore
SplineSet
540 300 m 3
 540 493 394.031 560 250 560 c 0
 250 100 l 3
 390.004 100 540 142.961 540 300 c 3
250 0 m 2
 50 0 l 1
 50 100 l 1
 150 100 l 1
 150 560 l 1
 50 560 l 1
 50 660 l 1
 250 660 l 2
 530 660 650 497.01 650 300 c 3
 650 141.972 548 2.6052e-05 250 0 c 2
EndSplineSet
EndChar

StartChar: f
Encoding: 102 102 22
Width: 465
VWidth: 0
Flags: WO
HStem: 0 100<50 150 250 350> 340 100<50 150 250 400> 610 100<270.427 434.26>
VStem: 150 100<100 340 440 591.85>
LayerCount: 2
Fore
SplineSet
250 500 m 2
 250 440 l 5
 400 440 l 5
 400 340 l 5
 250 340 l 5
 250 100 l 1
 350 100 l 1
 350 0 l 1
 50 0 l 1
 50 100 l 1
 150 100 l 1
 150 340 l 5
 50 340 l 5
 50 440 l 5
 150 440 l 5
 150 500 l 2
 150 679.5 228.707 710 330 710 c 3
 377.523 710 422.5 697.5 450 680 c 1
 450 580 l 1
 415.5 599.5 387.605 610 330 610 c 3
 271.606 610 250 586.5 250 500 c 2
EndSplineSet
EndChar

StartChar: c
Encoding: 99 99 23
Width: 550
VWidth: 0
Flags: W
HStem: -10 95<230.442 437.97> 415 95<230.442 398.138>
VStem: 30 110<171.958 328.227> 400 100<300 408.547>
LayerCount: 2
Fore
SplineSet
400 299.995 m 1
 400 402.995 l 1
 374.161 411.049 344.329 415 310 415 c 3
 221.978 415 140 342.394 140 250 c 27
 140 157.606 221.978 85 310 85 c 3
 403.001 85 452 104 500 150 c 1
 500 50 l 1
 476 25.333 429.012 -10 310 -10 c 3
 133.999 -10 30 107.599 30 250 c 3
 30 393.401 133.999 510 310 510 c 3
 429.012 510 472 473 500 446 c 1
 500 300 l 1
 400 299.995 l 1
EndSplineSet
EndChar

StartChar: u
Encoding: 117 117 24
Width: 720
VWidth: 0
Flags: W
HStem: -10 100<278.626 418.832> 0 100<590 690> 400 100<30 130 390 490>
VStem: 130 100<142.545 400> 490 100<167.463 400>
LayerCount: 2
Fore
SplineSet
130 400 m 9xb8
 30 400 l 25
 30 500 l 25
 230 500 l 25
 230 250 l 2
 230 135 272 90 350 90 c 27xb8
 432.915 90 490 170 490 250 c 2
 490 400 l 9
 390 400 l 25
 390 500 l 25
 590 500 l 25
 590 100 l 25
 690 100 l 25
 690 0 l 25
 490 0 l 17x78
 490 80 l 1
 466 24 418.969 -10 340 -10 c 3
 199.986 -10 130 77 130 250 c 10
 130 400 l 9xb8
EndSplineSet
EndChar

StartChar: T
Encoding: 84 84 25
Width: 600
VWidth: 0
Flags: W
HStem: 0 100<150 250 350 450> 460 190<20 120 480 580> 550 100<120 250 350 480>
VStem: 20 100<460 550> 250 100<100 550> 480 100<460 550>
CounterMasks: 1 1c
LayerCount: 2
Fore
SplineSet
580 650 m 25xdc
 580 460 l 17
 480 460 l 1xdc
 480 550 l 1
 350 550 l 9
 350 100 l 25
 450 100 l 25
 450 0 l 25
 150 0 l 25
 150 100 l 25
 250 100 l 25
 250 550 l 17
 120 550 l 1xbc
 120 460 l 1
 20 460 l 9
 20 650 l 25
 580 650 l 25xdc
EndSplineSet
EndChar

StartChar: N
Encoding: 78 78 26
Width: 790
VWidth: 0
Flags: W
HStem: 0 100<50 150 250 350> 550 100<50 150 440 540 640 740>
VStem: 150 100<100 451> 540 100<200 550>
LayerCount: 2
Fore
SplineSet
250 651 m 25
 540 200 l 25
 540 550 l 25
 440 550 l 25
 440 650 l 25
 740 650 l 25
 740 550 l 25
 640 550 l 25
 640 0 l 25
 540 0 l 25
 250 451 l 29
 250 100 l 25
 350 100 l 25
 350 0 l 25
 50 0 l 25
 50 100 l 25
 150 100 l 25
 150 550 l 25
 50 550 l 25
 50 650 l 25
 250 651 l 25
EndSplineSet
EndChar

StartChar: g
Encoding: 103 103 27
Width: 560
VWidth: 0
Flags: W
HStem: -210 100<124.693 376> -10 100<184.25 335.718> 410 100<202.586 367.721>
VStem: 40 100<138.243 339.85> 420 100<-64.1484 80 174.076 362.345>
LayerCount: 2
Fore
SplineSet
420 0 m 10
 420 80 l 1
 396 24 328.969 -10 250 -10 c 3
 109.986 -10 40 67 40 240 c 3
 40 375.83 115.951 510 280 510 c 3
 346.06 510 466 492 520 390 c 1
 520 0 l 2
 520 -192 348.969 -210 280 -210 c 3
 179.986 -210 116 -188 70 -170 c 13
 70 -70 l 1
 128 -98 234.968 -110.057 290 -110 c 0
 358.247 -110 420 -80 420 0 c 10
140 240 m 3
 140 124.999 185.083 90 260 90 c 3
 348.247 90 420 170 420 250 c 2
 420 335 l 1
 384 390 344.394 410 280 410 c 3
 184 410 140 338.02 140 240 c 3
EndSplineSet
EndChar

StartChar: d
Encoding: 100 100 28
Width: 650
VWidth: 0
Flags: W
HStem: -10 100<184.25 335.718> 0 100<520 620> 410 100<197.968 360.472> 600 100<320 420>
VStem: 40 100<138.243 344.447> 420 100<174.076 360.334 457 600>
LayerCount: 2
Fore
SplineSet
140 240 m 3xbc
 140 124.999 185.083 90 260 90 c 3
 348.247 90 420 170 420 250 c 2
 420 335 l 1
 384 390 324.394 410 260 410 c 3
 183.438 410 140 338.02 140 240 c 3xbc
420 457 m 1
 420 600 l 1
 320 600 l 1
 320 700 l 1
 520 700 l 1
 520 100 l 1
 620 100 l 1
 620 0 l 1
 420 0 l 1x7c
 420 80 l 1
 396 24 328.969 -10 250 -10 c 3
 109.986 -10 40 67 40 240 c 3
 40 375.83 124.17 510 260 510 c 3
 326.06 510 370 505 420 457 c 1
EndSplineSet
EndChar

StartChar: q
Encoding: 113 113 29
Width: 630
VWidth: 0
Flags: W
HStem: -210 100<320 420 520 620> -10 100<184.25 335.718> 410 100<202.586 367.72>
VStem: 40 100<138.243 339.85> 420 100<-110 80 174.076 362.345>
LayerCount: 2
Fore
SplineSet
140 240 m 3
 140 124.999 185.083 90 260 90 c 3
 348.247 90 420 170 420 250 c 2
 420 335 l 1
 384 390 344.394 410 280 410 c 3
 184 410 140 338.02 140 240 c 3
520 390 m 1
 520 -110 l 1
 620 -110 l 1
 620 -210 l 9
 320 -210 l 25
 320 -110 l 25
 420 -110 l 25
 420 80 l 1
 396 24 328.969 -10 250 -10 c 3
 109.986 -10 40 67 40 240 c 3
 40 375.83 115.951 510 280 510 c 3
 346.06 510 466 492 520 390 c 1
EndSplineSet
EndChar

StartChar: U
Encoding: 85 85 30
Width: 740
VWidth: 0
Flags: W
HStem: -10 100<293.086 451.784> 550 100<20 120 220 320 420 520 620 720>
VStem: 120 100<161.932 550> 520 100<161.393 550>
LayerCount: 2
Fore
SplineSet
720 650 m 9
 720 550 l 25
 620 550 l 25
 620 250 l 18
 620 76 528.202 -10 370 -10 c 3
 211.987 -10 120 77 120 250 c 10
 120 550 l 9
 20 550 l 25
 20 650 l 17
 320 650 l 9
 320 550 l 25
 220 550 l 25
 220 250 l 2
 220 135 299.743 90 370 90 c 3
 448.025 90 520 136 520 250 c 2
 520 550 l 9
 420 550 l 25
 420 650 l 17
 720 650 l 9
EndSplineSet
EndChar

StartChar: P
Encoding: 80 80 31
Width: 660
VWidth: 0
Flags: W
HStem: 0 100<50 150 250 350> 220 100<250 463.961> 560 100<50 150 250 447.369>
VStem: 150 100<100 220 320 560> 510 110<365.857 506.49>
LayerCount: 2
Fore
SplineSet
250 560 m 5
 250 320 l 1
 380 320 l 2
 474 320 510 371.002 510 440 c 27
 510 524.37 444 560 330 560 c 6
 250 560 l 5
330 660 m 22
 574 660 620 547.671 620 440 c 3
 620 312.07 532.014 220 390 220 c 2
 250 220 l 1
 250 100 l 9
 350 100 l 25
 350 0 l 25
 50 0 l 25
 50 100 l 25
 150 100 l 25
 150 560 l 29
 50 560 l 29
 50 660 l 29
 330 660 l 22
EndSplineSet
EndChar

StartChar: z
Encoding: 122 122 32
Width: 540
VWidth: 0
Flags: W
HStem: 0 100<190 390> 400 100<150 350>
VStem: 50 100<300 400> 390 100<100 200>
LayerCount: 2
Fore
SplineSet
390 200 m 1
 490 200 l 9
 490 0 l 25
 50 0 l 25
 50 100 l 25
 350 400 l 17
 150 400 l 1
 150 300 l 1
 50 300 l 9
 50 500 l 25
 490 500 l 29
 490 400 l 25
 190 100 l 17
 390 100 l 1
 390 200 l 1
EndSplineSet
EndChar

StartChar: m
Encoding: 109 109 33
Width: 1040
VWidth: 0
Flags: W
HStem: 0 100<40 140 250 330 390 470 580 660 720 800 910 1010> 400 100<40 140> 410 100<313.498 434.605 643.112 764.177>
VStem: 140 110<100 320.187> 470 110<100 319.646> 800 110<100 369.637>
CounterMasks: 1 1c
LayerCount: 2
Fore
SplineSet
580 150 m 10xbc
 580 100 l 9
 660 100 l 25
 660 0 l 25
 390 0 l 25
 390 100 l 25
 470 100 l 25
 470 250 l 2
 470 365 443.585 410 370 410 c 27xbc
 258.321 410 250 230 250 150 c 2
 250 100 l 9
 330 100 l 25
 330 0 l 25
 40 0 l 25
 40 100 l 25
 140 100 l 25
 140 400 l 25
 40 400 l 25
 40 500 l 25
 240 500 l 17
 240 400 l 1xdc
 256 458 301.031 510 380 510 c 3
 481.475 510 527 461 555 370 c 1
 571 428 631.031 510 710 510 c 3
 850.014 510 910 423 910 250 c 10
 910 100 l 9
 1010 100 l 25
 1010 0 l 25
 720 0 l 25
 720 100 l 25
 800 100 l 25
 800 250 l 2
 800 365 773.585 410 700 410 c 27
 588.321 410 580 230 580 150 c 10xbc
EndSplineSet
EndChar

StartChar: Z
Encoding: 90 90 34
Width: 620
VWidth: 0
Flags: W
HStem: 0 100<190 470> 550 100<150 430>
VStem: 50 100<450 550> 470 100<100 200>
LayerCount: 2
Fore
SplineSet
470 200 m 1
 570 200 l 9
 570 0 l 25
 50 0 l 25
 50 100 l 25
 430 550 l 17
 150 550 l 1
 150 450 l 1
 50 450 l 9
 50 650 l 25
 570 650 l 25
 570 550 l 25
 190 100 l 17
 470 100 l 1
 470 200 l 1
EndSplineSet
EndChar

StartChar: s
Encoding: 115 115 36
Width: 530
VWidth: 0
Flags: W
HStem: -10 100<118.455 364.856> 415 95<179.478 367.752>
VStem: 40 120<313.148 394.633> 370 120<99.9565 168.174> 370 100<330 404.418>
LayerCount: 2
Fore
SplineSet
60 140 m 17xf0
 98 113 167.864 90 260 90 c 3
 348.022 90 370 101.929 370 130 c 3xf0
 370 160.017 353 177 270 190 c 0
 130.293 211.882 40 243 40 350 c 3
 40 438 103.999 510 280 510 c 3
 373.021 510 442 473 470 446 c 1
 470 330 l 1
 370 329.995 l 1
 370 397.995 l 1xe8
 344.161 406.049 314.329 415 280 415 c 3
 191.978 415 160 393.417 160 350 c 3
 160 307.988 196 305 270 290 c 0
 339.585 275.895 490 258 490 130 c 3
 490 47.9941 436.001 -10 260 -10 c 3
 190 -10 98 8 60 40 c 9
 60 140 l 17xf0
EndSplineSet
EndChar

StartChar: A
Encoding: 65 65 37
Width: 740
VWidth: 0
Flags: W
HStem: 0 100<20 110 230 320 420 510 630 720> 230 100<305 435> 550 100<220 274>
LayerCount: 2
Fore
SplineSet
430 650 m 1
 630 100 l 1
 720 100 l 1
 720 0 l 1
 420 0 l 1
 420 100 l 1
 510 100 l 1
 468 230 l 1
 272 230 l 1
 257 185 242.9 139.622 230 100 c 1
 320 100 l 5
 320 0 l 5
 20 0 l 5
 20 100 l 5
 110 100 l 1
 274 550 l 1
 220 550 l 1
 220 650 l 1
 430 650 l 1
305 330 m 1
 435 330 l 1
 370 530 l 1
 305 330 l 1
EndSplineSet
EndChar

StartChar: t
Encoding: 116 116 38
Width: 450
VWidth: 0
Flags: WO
HStem: -10 100<192.638 368.663> 400 100<150 360> 630 20G<50 150>
VStem: 50 100<137.799 400 500 650>
LayerCount: 2
Fore
SplineSet
270 -10 m 3
 101.997 -10 50 107.599 50 250 c 2
 50 650 l 1
 150 650 l 1
 150 500 l 1
 360 500 l 1
 360 400 l 1
 150 400 l 1
 150 250 l 2
 150 133.898 183.992 90 270 90 c 3
 360.05 90 403 132.5 420 150 c 1
 420 50 l 1
 404.5 33 369.126 -10 270 -10 c 3
EndSplineSet
EndChar

StartChar: O
Encoding: 79 79 40
Width: 700
VWidth: 0
Flags: W
HStem: -10 100<257.525 446.879> 560 100<259.681 444.015>
VStem: 30 110<213.232 433.185> 560 110<208.482 431.637>
LayerCount: 2
Fore
SplineSet
350 560 m 3
 251.816 560 140 494.103 140 320 c 3
 140 175.986 232.996 90 350 90 c 3
 473.329 90 560 171.986 560 320 c 3
 560 490.012 452.02 560 350 560 c 3
350 -10 m 3
 214.63 -10 30 65.9922 30 320 c 3
 30 582.008 209.986 660 350 660 c 3
 487.014 660 670 578 670 320 c 3
 670 57.9922 489.014 -10 350 -10 c 3
EndSplineSet
EndChar

StartChar: v
Encoding: 118 118 41
Width: 680
VWidth: 0
Flags: W
HStem: 0 21G<281.5 398.5> 400 100<30 120 230 310 370 450 560 650>
LayerCount: 2
Fore
SplineSet
340 120 m 25
 450 400 l 9
 370 400 l 25
 370 500 l 17
 650 500 l 9
 650 400 l 25
 560 400 l 25
 390 0 l 25
 290 0 l 29
 120 400 l 13
 30 400 l 29
 30 500 l 21
 310 500 l 9
 310 400 l 25
 230 400 l 25
 340 120 l 25
EndSplineSet
EndChar

StartChar: V
Encoding: 86 86 42
Width: 740
VWidth: 0
Flags: W
HStem: 0 21G<302.727 437.273> 550 100<20 110 230 320 420 510 630 720>
LayerCount: 2
Fore
SplineSet
370 120 m 25
 510 550 l 9
 420 550 l 25
 420 650 l 17
 720 650 l 9
 720 550 l 25
 630 550 l 29
 430 0 l 29
 310 0 l 25
 110 550 l 9
 20 550 l 25
 20 650 l 17
 320 650 l 9
 320 550 l 25
 230 550 l 25
 370 120 l 25
EndSplineSet
EndChar

StartChar: Y
Encoding: 89 89 43
Width: 740
VWidth: 0
Flags: W
HStem: 0 100<220 320 420 520> 550 100<20 110 230 320 420 510 630 720>
VStem: 320 100<100 270>
LayerCount: 2
Fore
SplineSet
320 270 m 25
 110 550 l 9
 20 550 l 25
 20 650 l 17
 320 650 l 9
 320 550 l 25
 230 550 l 25
 370 360 l 25
 510 550 l 9
 420 550 l 25
 420 650 l 17
 720 650 l 9
 720 550 l 25
 630 550 l 25
 420 270 l 25
 420 100 l 25
 520 100 l 25
 520 0 l 25
 220 0 l 25
 220 100 l 25
 320 100 l 25
 320 270 l 25
EndSplineSet
EndChar

StartChar: X
Encoding: 88 88 44
Width: 740
VWidth: 0
Flags: W
HStem: 0 100<20 90 230 320 420 510 650 720> 550 100<20 90 230 320 420 510 650 720>
VStem: 20 300<0 100 550 650> 420 300<0 100 550 650>
LayerCount: 2
Fore
SplineSet
440 325 m 29
 650 100 l 29
 720 100 l 25
 720 0 l 17
 420 0 l 9
 420 100 l 25
 510 100 l 21
 370 250 l 29
 230 100 l 25
 320 100 l 25
 320 0 l 17
 20 0 l 9
 20 100 l 25
 90 100 l 17
 300 325 l 25
 90 550 l 9
 20 550 l 25
 20 650 l 17
 320 650 l 9
 320 550 l 25
 230 550 l 25
 370 395 l 25
 510 550 l 9
 420 550 l 25
 420 650 l 17
 720 650 l 9
 720 550 l 25
 650 550 l 25
 440 325 l 29
EndSplineSet
EndChar

StartChar: y
Encoding: 121 121 45
Width: 730
VWidth: 0
Flags: W
HStem: -198 100<165 250 370 435> 400 100<25 100 235 310 420 495 610 705>
LayerCount: 2
Fore
SplineSet
331 68 m 25
 100 400 l 9
 25 400 l 25
 25 500 l 17
 310 500 l 9
 310 400 l 25
 235 400 l 25
 385 172 l 25
 495 400 l 9
 420 400 l 25
 420 500 l 17
 705 500 l 13
 705 400 l 29
 610 400 l 25
 370 -98 l 9
 435 -98 l 25
 435 -198 l 17
 165 -198 l 9
 165 -98 l 25
 250 -98 l 25
 331 68 l 25
EndSplineSet
EndChar

StartChar: C
Encoding: 67 67 46
Width: 650
VWidth: 0
Flags: W
HStem: -10 100<283.159 523.571> 560 100<275.946 498.85>
VStem: 30 130<209.495 428.747>
LayerCount: 2
Fore
SplineSet
390 -10 m 7
 512.565 -10 584.5 33 600 50 c 1
 600 150 l 1
 583 132.5 505.536 90 380 90 c 4
 277.956 89 160 156.987 160 310 c 3
 160 465.013 247.888 560 360 560 c 3
 443.006 560 474.161 546.049 500 537.995 c 1
 500 439.995 l 1
 600 440 l 1
 600 586 l 1
 572 613 491.095 660 360 660 c 3
 157.998 660 30 493.011 30 310 c 3
 30 115 191.748 -10 390 -10 c 7
EndSplineSet
EndChar

StartChar: R
Encoding: 82 82 47
Width: 750
VWidth: 0
Flags: W
HStem: 0 100<50 150 250 320 410 480 610 710> 280 100<250 350> 560 100<50 150 250 464.76>
VStem: 150 100<100 280 380 560> 510 110<412.706 524.256>
CounterMasks: 1 e0
LayerCount: 2
Fore
SplineSet
250 380 m 1
 250 380 287.824 380 390 380 c 3
 463.585 380 510 411.5 510 470 c 3
 510 540.997 462 560 250 560 c 13
 250 380 l 1
250 660 m 6
 489 660 620 646.993 620 470 c 3
 620 369.99 569 301 480 280 c 1
 610 100 l 1
 710 100 l 1
 710 0 l 1
 410 0 l 1
 410 100 l 1
 480 100 l 1
 350 280 l 1
 250 280 l 1
 250 100 l 1
 320 100 l 1
 320 0 l 1
 50 0 l 1
 50 100 l 1
 150 100 l 1
 150 560 l 5
 50 560 l 5
 50 660 l 5
 250 660 l 6
EndSplineSet
EndChar

StartChar: G
Encoding: 71 71 48
Width: 650
VWidth: 0
Flags: W
HStem: -10 100<263.879 496.888> 220 100<390 500> 560 100<269.826 498.85>
VStem: 30 110<209.565 419.219> 500 100<104.016 220 439.995 544.831>
LayerCount: 2
Fore
SplineSet
600 50 m 1
 576 25.333 491.034 -10 360 -10 c 0
 161.748 -10 30 115 30 310 c 0
 30 493.011 157.998 660 360 660 c 0
 491.095 660 572 613 600 586 c 1
 600 439.995 l 1
 500 439.995 l 1
 500 537.995 l 1
 474.161 546.049 443.006 560 360 560 c 0
 247.888 560 140 465.013 140 310 c 4
 140 156.987 257.956 90 360 90 c 0
 404.424 90 455 96 500 110 c 1
 500 220 l 1
 390 220 l 1
 390 320 l 1
 600 320 l 1
 600 50 l 1
EndSplineSet
EndChar

StartChar: comma
Encoding: 44 44 49
Width: 243
VWidth: 0
Flags: W
HStem: -140 270<73 130>
VStem: 73 100<19.0698 130>
LayerCount: 2
Fore
SplineSet
73 50 m 21
 73 130 l 29
 173 130 l 29
 173 50 l 29
 130 -140 l 29
 50 -140 l 29
 73 50 l 21
EndSplineSet
EndChar

StartChar: K
Encoding: 75 75 50
Width: 700
VWidth: 0
Flags: W
HStem: 0 100<50 150 250 330 390 450 590 660> 550 100<50 150 250 330 390 450 590 660>
VStem: 50 280<0 100 550 650> 150 100<100 250 395 550> 390 270<0 100 550 650>
LayerCount: 2
Fore
SplineSet
250 395 m 9xd8
 450 550 l 9
 390 550 l 25
 390 650 l 17
 660 650 l 9
 660 550 l 25
 590 550 l 25
 320 325 l 25
 590 100 l 25
 660 100 l 25
 660 0 l 17
 390 0 l 9
 390 100 l 25
 450 100 l 17
 250 250 l 17
 250 100 l 9xd8
 330 100 l 25
 330 0 l 25
 50 0 l 25
 50 100 l 25xe8
 150 100 l 25
 150 550 l 25xd8
 50 550 l 25
 50 650 l 25
 330 650 l 25
 330 550 l 25xe8
 250 550 l 17
 250 395 l 9xd8
EndSplineSet
EndChar

StartChar: S
Encoding: 83 83 51
Width: 540
VWidth: 0
Flags: W
HStem: -10 100<133.268 341.497> 560 100<202.31 378.47>
VStem: 30 130<436.418 522.784> 380 130<125.537 224.818> 380 100<450 554.087>
LayerCount: 2
Fore
SplineSet
53 153 m 17xf0
 88 116 194.952 90 260 90 c 3
 348.022 90 380 141.929 380 170 c 3xf0
 380 216.271 355 240 280 270 c 4
 142.859 324.857 30 373 30 480 c 3
 30 568 123.999 660 300 660 c 3
 419.012 660 452 623 480 596 c 1
 480 450 l 1
 380 449.995 l 1
 380 547.995 l 1xe8
 354.161 556.049 334.329 560 300 560 c 3
 211.978 560 160 523.417 160 480 c 3
 160 437.988 207 410 280 380 c 0
 345.671 353.012 510 310.004 510 170 c 3
 510 87.9941 436.001 -10 260 -10 c 3
 140.988 -10 75 14 38 42 c 9
 53 153 l 17xf0
EndSplineSet
EndChar

StartChar: B
Encoding: 66 66 52
Width: 660
VWidth: 0
Flags: W
HStem: 0 100<50 150 250 467.874> 290 100<250 454.68> 560 100<50 150 250 413.424>
VStem: 150 100<100 290 390 560> 470 110<406.61 511.82> 510 110<135.143 243.687>
LayerCount: 2
Fore
SplineSet
250 390 m 1xf8
 350 390 l 2
 423.585 390 470 397.676 470 450 c 27
 470 545.928 383 559 250 560 c 13
 250 390 l 1xf8
523.121 338.07 m 1
 581 317 620 244.025 620 180 c 3xf4
 620 4.98857 418 1.4687e-05 250 0 c 2
 50 0 l 1
 50 100 l 1
 150 100 l 1
 150 560 l 5
 50 560 l 5
 50 660 l 5
 250 660 l 6
 390.014 660 580 646.993 580 450 c 3
 580 398.589 550 346 523.121 338.07 c 1
350 290 m 2
 250 290 l 1
 250 100 l 1
 426 100 510 104 510 190 c 3
 510 263.585 423.585 290 350 290 c 2
EndSplineSet
EndChar

StartChar: zero
Encoding: 48 48 53
Width: 620
VWidth: 0
Flags: W
HStem: -10 100<239.689 386.375> 560 100<239.619 382.477>
VStem: 40 110<200.458 442.445> 470 110<192.051 453.018>
LayerCount: 2
Fore
SplineSet
310 560 m 7
 211.816 560 150 454.093 150 320 c 7
 150 179.996 221.978 90 310 90 c 7
 406.021 90 470 173.969 470 320 c 7
 470 464.031 412.02 560 310 560 c 7
310 -10 m 7
 167.986 -10 40 81.9979 40 320 c 7
 40 558.002 169.986 660 310 660 c 7
 447.014 660 580 566.051 580 320 c 7
 580 79.9813 449.014 -10 310 -10 c 7
EndSplineSet
EndChar

StartChar: one
Encoding: 49 49 54
Width: 480
VWidth: 0
Flags: W
HStem: 0 100<70 200 300 430> 550 100<60 200>
VStem: 200 100<100 550>
LayerCount: 2
Fore
SplineSet
300 100 m 25
 430 100 l 25
 430 0 l 25
 70 0 l 25
 70 100 l 25
 200 100 l 25
 200 550 l 25
 60 550 l 25
 60 650 l 25
 300 650 l 25
 300 100 l 25
EndSplineSet
EndChar

StartChar: exclam
Encoding: 33 33 55
Width: 300
VWidth: 0
Flags: W
HStem: 0 130<105.11 194.89> 680 20G<90 210>
VStem: 90 120<15.2949 114.705 532 700> 110 80<220 388>
LayerCount: 2
Fore
SplineSet
110 220 m 29xd0
 90 700 l 25
 210 700 l 25xe0
 190 220 l 29
 110 220 l 29xd0
EndSplineSet
Refer: 11 46 N 1 0 0 1 30 0 2
EndChar

StartChar: hyphen
Encoding: 45 45 57
Width: 440
VWidth: 0
Flags: W
HStem: 200 100<50 390>
LayerCount: 2
Fore
SplineSet
50 200 m 1
 50 300 l 1
 390 300 l 5
 390 200 l 1
 50 200 l 1
EndSplineSet
EndChar

StartChar: w
Encoding: 119 119 58
Width: 980
VWidth: 0
Flags: W
HStem: 0 21G<281.5 397.727 582.273 708> 400 100<30 120 230 300 370 450 530 620 680 750 860 950>
LayerCount: 2
Fore
SplineSet
450 400 m 1
 370 400 l 1
 370 500 l 1
 620 500 l 1
 620 400 l 1
 530 400 l 1
 650 120 l 1
 750 400 l 1
 680 400 l 1
 680 500 l 1
 950 500 l 1
 950 400 l 1
 860 400 l 1
 700 0 l 1
 590 0 l 1
 490 258.824 l 1
 390 0 l 1
 290 0 l 1
 120 400 l 1
 30 400 l 1
 30 500 l 1
 300 500 l 1
 300 400 l 1
 230 400 l 1
 340 120 l 1
 450 400 l 1
EndSplineSet
EndChar

StartChar: dollar
Encoding: 36 36 59
Width: 540
VWidth: 0
Flags: W
HStem: -10 100<133.268 341.497> 560 100<202.31 378.47>
VStem: 30 130<436.418 522.784> 220 100<-90 740> 380 100<450 554.087> 380 130<125.537 224.818>
LayerCount: 2
Fore
SplineSet
220 -90 m 29xf0
 220 740 l 29
 320 740 l 25
 320 -90 l 25
 220 -90 l 29xf0
EndSplineSet
Refer: 51 83 N 1 0 0 1 0 0 2
EndChar

StartChar: bar
Encoding: 124 124 60
Width: 280
VWidth: 0
Flags: W
VStem: 90 100<-220 720>
LayerCount: 2
Fore
SplineSet
90 -220 m 29
 90 720 l 29
 190 720 l 25
 190 -220 l 25
 90 -220 l 29
EndSplineSet
EndChar

StartChar: parenleft
Encoding: 40 40 61
Width: 400
VWidth: 0
Flags: W
HStem: -220 100<325.825 370> 620 100<309.495 370>
VStem: 100 110<96.5228 454.797>
LayerCount: 2
Fore
SplineSet
370 -220 m 21
 171.748 -220 100 85 100 280 c 3
 100 463.011 167.997 720 370 720 c 13
 370 620 l 21
 257.889 620 210 435.013 210 280 c 3
 210 126.987 267.956 -120 370 -120 c 13
 370 -220 l 21
EndSplineSet
EndChar

StartChar: bracketleft
Encoding: 91 91 63
Width: 370
VWidth: 0
Flags: W
HStem: -220 100<180 340> 620 100<180 340>
VStem: 80 260<-220 -120 620 720> 80 100<-120 620>
LayerCount: 2
Fore
SplineSet
340 -120 m 5xe0
 340 -220 l 5
 80 -220 l 5
 80 720 l 5
 340 720 l 5
 340 620 l 5xe0
 180 620 l 5
 180 -120 l 5xd0
 340 -120 l 5xe0
EndSplineSet
EndChar

StartChar: slash
Encoding: 47 47 65
Width: 360
VWidth: 0
Flags: W
VStem: 60 270
LayerCount: 2
Fore
SplineSet
60 -20 m 25
 230 720 l 25
 330 720 l 25
 160 -20 l 25
 60 -20 l 25
EndSplineSet
EndChar

StartChar: plus
Encoding: 43 43 68
Width: 540
VWidth: 0
Flags: W
HStem: 200 100<50 220 320 490>
VStem: 220 100<30 200 300 470>
LayerCount: 2
Fore
SplineSet
490 300 m 1
 490 200 l 1
 320 200 l 1
 320 30 l 1
 220 30 l 5
 220 200 l 5
 50 200 l 1
 50 300 l 1
 220 300 l 5
 220 470 l 5
 320 470 l 1
 320 300 l 1
 490 300 l 1
EndSplineSet
EndChar

StartChar: equal
Encoding: 61 61 69
Width: 480
VWidth: 0
Flags: W
HStem: 100 100<50 430> 300 100<50 430>
LayerCount: 2
Fore
SplineSet
50 300 m 1
 50 400 l 1
 430 400 l 1
 430 300 l 1
 50 300 l 1
50 100 m 1
 50 200 l 1
 430 200 l 1
 430 100 l 1
 50 100 l 1
EndSplineSet
EndChar

StartChar: underscore
Encoding: 95 95 70
Width: 500
VWidth: 0
Flags: W
HStem: -140 80<50 450>
LayerCount: 2
Fore
SplineSet
50 -140 m 1
 50 -60 l 1
 450 -60 l 1
 450 -140 l 1
 50 -140 l 1
EndSplineSet
EndChar

StartChar: less
Encoding: 60 60 71
Width: 420
VWidth: 0
Flags: W
LayerCount: 2
Fore
SplineSet
390 30 m 25
 180 255 l 25
 390 480 l 25
 260 480 l 17
 50 255 l 25
 260 30 l 9
 390 30 l 25
EndSplineSet
EndChar

StartChar: W
Encoding: 87 87 72
Width: 1020
VWidth: 0
Flags: W
HStem: 0 21G<273.818 406.131 613.869 746.182> 550 100<20 110 230 300 380 460 560 650 720 790 910 1000>
LayerCount: 2
Fore
SplineSet
460 550 m 1
 380 550 l 1
 380 650 l 1
 650 650 l 1
 650 550 l 1
 560 550 l 1
 680 120 l 1
 790 550 l 1
 720 550 l 1
 720 650 l 1
 1000 650 l 1
 1000 550 l 1
 910 550 l 1
 740 0 l 1
 620 0 l 1
 510 358.823 l 5
 400 0 l 1
 280 0 l 1
 110 550 l 1
 20 550 l 1
 20 650 l 1
 300 650 l 1
 300 550 l 1
 230 550 l 1
 340 120 l 1
 460 550 l 1
EndSplineSet
EndChar

StartChar: numbersign
Encoding: 35 35 73
Width: 660
VWidth: 0
Flags: W
HStem: 90 100<50 145.541 258.514 355.541 468.514 570> 290 100<90 191.486 304.459 401.486 514.459 610>
LayerCount: 2
Fore
SplineSet
90 290 m 5
 90 390 l 5
 214.459 390 l 5
 265 610 l 5
 355 610 l 5
 304.459 390 l 5
 424.459 390 l 5
 475 610 l 5
 565 610 l 5
 514.459 390 l 5
 610 390 l 5
 610 290 l 5
 491.486 290 l 5
 468.514 190 l 5
 570 190 l 5
 570 90 l 5
 445.541 90 l 5
 395 -130 l 5
 305 -130 l 5
 355.541 90 l 5
 235.541 90 l 5
 185 -130 l 5
 95 -130 l 5
 145.541 90 l 5
 50 90 l 5
 50 190 l 5
 168.514 190 l 5
 191.486 290 l 5
 90 290 l 5
401.486 290 m 5
 281.486 290 l 5
 258.514 190 l 5
 378.514 190 l 5
 401.486 290 l 5
EndSplineSet
EndChar

StartChar: quotesingle
Encoding: 39 39 74
Width: 240
VWidth: 0
Flags: W
HStem: 470 230<80 160>
VStem: 70 100<539 700> 80 80<470 631>
LayerCount: 2
Fore
SplineSet
80 470 m 25xa0
 70 700 l 25
 170 700 l 25xc0
 160 470 l 25
 80 470 l 25xa0
EndSplineSet
EndChar

StartChar: two
Encoding: 50 50 76
Width: 520
VWidth: 0
Flags: W
HStem: 0 100<180 470> 560 100<151.966 330.442>
VStem: 50 100<470 545.748> 350 120<454.753 540.115>
LayerCount: 2
Fore
SplineSet
350 500 m 7
 350 553.038 280.5 560 250 560 c 7
 198.756 560 175.839 546.049 150 537.995 c 5
 150 469.995 l 5
 50 470 l 5
 50 586 l 5
 78 613 130.988 660 250 660 c 7
 426.001 660 470 575.026 470 500 c 7
 470 424.834 180 100 180 100 c 9
 470 100 l 1
 470 0 l 1
 50 0 l 1
 50 100 l 1
 129.716 189.669 350 455.997 350 500 c 7
EndSplineSet
EndChar

StartChar: Q
Encoding: 81 81 77
Width: 700
VWidth: 0
Flags: HW
HStem: -10 100<267.525 456.879> 560 100<269.681 454.016>
VStem: 40 110<213.232 433.185> 570 110<208.482 431.637>
LayerCount: 2
Fore
SplineSet
632 -60 m 21
 332 220 l 29
 402 305 l 29
 700 25 l 29
 632 -60 l 21
EndSplineSet
Refer: 40 79 N 1 0 0 1 0 0 2
EndChar

StartChar: question
Encoding: 63 63 79
Width: 540
VWidth: 0
Flags: W
HStem: 0 130<185.11 274.89> 499.995 21G<40 140> 610 100<141.53 317.69>
VStem: 40 100<500 604.087> 170 120<15.2949 114.705> 185 90<220 345.147> 360 130<494.261 572.784>
LayerCount: 2
Fore
SplineSet
280 340 m 13xf6
 275 220 l 29
 185 220 l 25
 175 400 l 17
 248 430 360 487.988 360 530 c 3
 360 573.417 308.022 610 220 610 c 3
 185.671 610 165.839 606.049 140 597.995 c 1
 140 499.995 l 1
 40 500 l 1
 40 646 l 1
 68 673 100.988 710 220 710 c 3
 396.001 710 490 618 490 530 c 3
 490 450.994 417.142 394.856 280 340 c 13xf6
EndSplineSet
Refer: 11 46 N 1 0 0 1 110 0 2
EndChar

StartChar: k
Encoding: 107 107 80
Width: 670
VWidth: 0
Flags: W
HStem: 0 100<50 150 250 300 340 400 560 620> 400 100<340 405> 600 100<50 150>
VStem: 150 100<100 210 315 600>
LayerCount: 2
Fore
SplineSet
250 100 m 1
 300 100 l 1
 300 0 l 1
 50 0 l 1
 50 100 l 1
 150 100 l 1
 150 600 l 1
 50 600 l 1
 50 700 l 1
 250 700 l 1
 250 315 l 1
 405 400 l 1
 340 400 l 5
 340 500 l 5
 570 500 l 1
 570 400 l 1
 340 265 l 1
 560 100 l 1
 620 100 l 1
 620 0 l 1
 340 0 l 1
 340 100 l 1
 400 100 l 1
 250 210 l 1
 250 100 l 1
EndSplineSet
EndChar

StartChar: asciicircum
Encoding: 94 94 81
Width: 420
VWidth: 0
Flags: W
HStem: 530 180
VStem: 45 330
LayerCount: 2
Fore
SplineSet
375 530 m 29
 210 620 l 29
 45 530 l 29
 45 620 l 21
 210 710 l 29
 375 620 l 13
 375 530 l 29
EndSplineSet
EndChar

StartChar: x
Encoding: 120 120 82
Width: 600
VWidth: 0
Flags: W
HStem: 0 100<40 90 220 270 330 380 510 560> 400 100<40 90 220 270 330 380 510 560>
VStem: 40 230<0 100 400 500> 330 230<0 100 400 500>
LayerCount: 2
Fore
SplineSet
350 245 m 25
 510 100 l 25
 560 100 l 25
 560 0 l 17
 330 0 l 9
 330 100 l 25
 380 100 l 17
 300 170 l 25
 220 100 l 25
 270 100 l 25
 270 0 l 17
 40 0 l 9
 40 100 l 25
 90 100 l 17
 250 245 l 25
 90 400 l 9
 40 400 l 25
 40 500 l 17
 270 500 l 9
 270 400 l 25
 220 400 l 25
 300 315 l 25
 380 400 l 9
 330 400 l 25
 330 500 l 17
 560 500 l 9
 560 400 l 25
 510 400 l 25
 350 245 l 25
EndSplineSet
EndChar

StartChar: four
Encoding: 52 52 83
Width: 560
VWidth: 0
Flags: W
HStem: 0 21G<310 410> 110 100<170 310 410 510> 630 20G<298.182 410>
VStem: 310 100<0 110 210 470>
LayerCount: 2
Fore
SplineSet
310 470 m 1
 170 210 l 5
 310 210 l 5
 310 470 l 1
410 110 m 5
 410 0 l 1
 310 0 l 1
 310 110 l 5
 50 110 l 5
 50 210 l 5
 310 650 l 1
 410 650 l 1
 410 210 l 5
 510 210 l 5
 510 110 l 5
 410 110 l 5
EndSplineSet
EndChar

StartChar: seven
Encoding: 55 55 84
Width: 550
VWidth: 0
Flags: W
HStem: 0 21G<145 273.545> 550 100<150 385>
VStem: 50 100<450 550>
LayerCount: 2
Fore
SplineSet
145 0 m 25
 385 550 l 17
 150 550 l 1
 150 450 l 1
 50 450 l 9
 50 650 l 25
 500 650 l 25
 500 550 l 25
 265 0 l 17
 145 0 l 25
EndSplineSet
EndChar

StartChar: five
Encoding: 53 53 85
Width: 520
VWidth: 0
Flags: W
HStem: -10 100<152.297 324.021> 340 100<170.996 325.651> 550 100<150 420>
VStem: 40 100<106.161 190> 50 100<410 550> 370 100<135.526 291.548>
LayerCount: 2
Fore
SplineSet
50 300 m 5xec
 50 650 l 5
 420 650 l 5
 420 550 l 5
 150 550 l 29
 150 410 l 21xec
 170 426 205.971 440 275 440 c 7
 350.007 440 470 382 470 210 c 7
 470 53.9492 364 -10 230 -10 c 7
 110.988 -10 60 39 40 74 c 5
 40 190 l 5
 140 190.005 l 5
 140 122.005 l 5xf4
 157 103 195.671 90 230 90 c 7
 294.031 90 370 105.98 370 210 c 7
 370 291.174 327.03 340 260 340 c 7
 193.811 340 167 318 150 300 c 5
 50 300 l 5xec
EndSplineSet
EndChar

StartChar: three
Encoding: 51 51 86
Width: 520
VWidth: 0
Flags: W
HStem: -10 100<172.24 323.808> 489.995 160.005<60 160> 549.995 100.005<160 345>
VStem: 60 100<106.114 190 489.995 549.995> 380 100<147.713 297.559>
LayerCount: 2
Fore
SplineSet
455 550 m 1xb8
 355 420 l 1
 428 399 480 346.499 480 230 c 3
 480 69.9502 374.065 -10 250 -10 c 3
 130.988 -10 76 41 60 74 c 1
 60 190 l 1
 160 190 l 1
 160 122.005 l 1
 185 98 215.671 90 250 90 c 3
 297 90 380 115.982 380 230 c 3
 380 306.007 316.008 345 250 345 c 2
 185 345 l 1
 345 550 l 1
 160 549.995 l 1xb8
 160 489.995 l 1
 60 489.995 l 1
 60 650 l 1xd8
 455 650 l 17
 455 550 l 1xb8
EndSplineSet
EndChar

StartChar: grave
Encoding: 96 96 87
Width: 400
VWidth: 0
Flags: W
HStem: 550 200
VStem: 50 300
LayerCount: 2
Fore
SplineSet
87 750 m 25
 350 630 l 25
 320 550 l 25
 50 660 l 17
 87 750 l 25
EndSplineSet
EndChar

StartChar: nine
Encoding: 57 57 88
Width: 570
VWidth: 0
Flags: W
HStem: -10 100<188.851 349.905> 230 100<204.694 359.286> 560 100<195.104 365.119>
VStem: 50 110<372.405 525.676> 88 100<95.2303 170> 400 110<141.049 526.605>
LayerCount: 2
Fore
SplineSet
400 230 m 3xec
 400 274.003 400 364.2 400 450 c 29
 510 450 l 29
 510 379.8 510 345.166 510 270 c 3
 510 111.997 443.012 -10 278 -10 c 3
 158.988 -10 108 25 88 54 c 1
 88 170 l 1
 188 170.005 l 1
 188 102.005 l 1
 202 93 250 90 278 90 c 3
 341.127 90 400 125.88 400 230 c 3xec
280 560 m 3
 181.816 560 160 513.487 160 450 c 31xf4
 160 383.814 191.978 330 280 330 c 3
 376.021 330 400 383.814 400 450 c 31
 400 513.487 382.02 560 280 560 c 3
280 230 m 3
 137.986 230 50 325.872 50 450 c 31
 50 571.465 139.986 660 280 660 c 3
 417.014 660 510 571.465 510 450 c 31
 510 325.872 419.014 230 280 230 c 3
EndSplineSet
EndChar

StartChar: six
Encoding: 54 54 89
Width: 560
VWidth: 0
Flags: W
HStem: -10 100<200.936 358.796> 320 100<191.02 365.224> 560 100<210.095 371.149>
VStem: 50 110<129.836 220 380 508.951> 372 100<480 554.77> 400 110<133.562 287.579>
LayerCount: 2
Fore
SplineSet
160 420 m 3xf8
 160 375.997 160 298 160 220 c 25
 50 220 l 25
 50 282.4 50 304.834 50 380 c 3
 50 538.003 116.988 660 282 660 c 3
 401.012 660 452 625 472 596 c 1
 472 480 l 1
 372 479.995 l 1
 372 547.995 l 1
 358 557 310 560 282 560 c 3
 218.873 560 160 524.12 160 420 c 3xf8
280 90 m 3
 378.184 90 400 151.002 400 220 c 27xf4
 400 280.92 368.022 320 280 320 c 3
 183.979 320 160 280.92 160 220 c 27
 160 151.002 177.98 90 280 90 c 3
280 420 m 3
 422.014 420 510 338.87 510 220 c 27
 510 93.1455 420.014 -10 280 -10 c 3
 142.986 -10 50 93.1455 50 220 c 27
 50 338.87 140.986 420 280 420 c 3
EndSplineSet
EndChar

StartChar: eight
Encoding: 56 56 90
Width: 540
VWidth: 0
Flags: W
HStem: -10 100<190.831 349.75> 300 100<132.986 410.014> 560 100<203.288 342.87>
VStem: 40 110<129.709 259.046> 60 110<419.19 528.102> 370 110<423.628 533.482> 390 110<129.709 263.372>
LayerCount: 2
Fore
SplineSet
270 400 m 3xec
 340.028 400 370 430.056 370 480 c 31
 370 529.944 333 560 270 560 c 7
 209 560 170 522.469 170 470 c 31
 170 422.395 199.993 400 270 400 c 3xec
270 660 m 7
 412.014 660 480 587.869 480 480 c 31
 480 372.131 410.014 300 270 300 c 3
 132.986 300 60 372.131 60 480 c 31
 60 587.869 130.986 660 270 660 c 7
270 90 m 3
 357.006 90 390 136.513 390 200 c 27
 390 260.92 351.006 300 270 300 c 3
 199 300 150 260.92 150 200 c 27xf2
 150 136.513 182.994 90 270 90 c 3
270 400 m 3
 412.014 400 500 318.87 500 200 c 27
 500 78.5352 410.014 -10 270 -10 c 3
 132.986 -10 40 78.5352 40 200 c 27
 40 318.87 130.986 400 270 400 c 3
EndSplineSet
EndChar

StartChar: asciitilde
Encoding: 126 126 91
Width: 530
VWidth: 0
Flags: W
HStem: 170 110<288.827 454.743> 200 110<50 115.465 414.535 480> 230 110<75.2572 241.173>
LayerCount: 2
Fore
SplineSet
340 170 m 27x80
 395.84 170 480 200 480 200 c 1
 480 310 l 1x40
 480 310 408.24 280 360 280 c 27x80
 289.691 280 260.309 340 190 340 c 27x20
 134.16 340 50 310 50 310 c 1
 50 200 l 1x40
 50 200 121.76 230 170 230 c 27x20
 240.309 230 269.691 170 340 170 c 27x80
EndSplineSet
EndChar

StartChar: braceleft
Encoding: 123 123 92
Width: 400
VWidth: 0
Flags: W
HStem: -220 100<319.677 370> 620 100<305.565 370>
VStem: 150 110<-36.0003 183.208 372.68 570.092>
LayerCount: 2
Fore
SplineSet
260 70 m 3
 260 -43.0527 313.149 -120 370 -120 c 9
 370 -220 l 3
 246.448 -220 150 -62.4268 150 90 c 7
 150 182.348 86.3457 270.957 40 280 c 5
 90.6348 287.41 150 377.642 150 470 c 7
 150 601.575 251.155 720 370 720 c 9
 370 620 l 17
 312.072 620 260 578.888 260 490 c 3
 260 367.853 211.713 290.633 160 280 c 1
 207.388 275.571 260 198.016 260 70 c 3
EndSplineSet
EndChar

StartChar: percent
Encoding: 37 37 94
Width: 780
VWidth: 0
Flags: W
HStem: -20 80<541.847 641.17> 200 80<540.305 640.788> 420 80<141.847 241.17> 640 80<140.305 240.788>
VStem: 30 90<521.287 619.314> 260 90<520.099 619.901> 430 90<81.2868 179.314> 660 90<80.0987 179.901>
LayerCount: 2
Fore
SplineSet
190 640 m 3
 153.944 640 120 608.608 120 570 c 27
 120 531.392 155.941 500 190 500 c 3
 230.05 500 260 531.392 260 570 c 27
 260 608.608 230.05 640 190 640 c 3
190 420 m 3
 112 420 30 484.467 30 570 c 27
 30 655.533 105.905 720 190 720 c 3
 276 720 350 655.533 350 570 c 27
 350 484.467 288.021 420 190 420 c 3
590 200 m 3
 553.944 200 520 168.608 520 130 c 27
 520 91.3916 555.941 60 590 60 c 3
 630.05 60 660 91.3916 660 130 c 27
 660 168.608 630.05 200 590 200 c 3
590 -20 m 3
 512 -20 430 44.4668 430 130 c 27
 430 215.533 505.905 280 590 280 c 3
 676 280 750 215.533 750 130 c 27
 750 44.4668 688.021 -20 590 -20 c 3
140 -20 m 25
 530 720 l 25
 640 720 l 25
 250 -20 l 25
 140 -20 l 25
EndSplineSet
EndChar

StartChar: asterisk
Encoding: 42 42 95
Width: 540
VWidth: 0
Flags: W
HStem: 680 20G<215 325>
VStem: 215 110<540 700>
LayerCount: 2
Fore
SplineSet
215 700 m 1
 325 700 l 1
 325 540 l 1
 450 590 l 1
 490 490 l 1
 340 430 l 1
 465 310 l 1
 390 230 l 1
 270 350 l 5
 150 230 l 1
 75 310 l 1
 200 430 l 1
 50 490 l 1
 90 590 l 1
 215 540 l 1
 215 700 l 1
EndSplineSet
EndChar

StartChar: at
Encoding: 64 64 96
Width: 765
VWidth: 0
Flags: W
HStem: -190 90<295.329 544.913> -10 95<319.746 430.774> 0 21G<480 599.75> 280 90<343.29 469.185> 420 90<275.087 514.494>
VStem: 30 100<60.1022 281.682> 200 100<105.205 236.579> 480 95<127.765 265.697> 640 95<123.624 310.486>
LayerCount: 2
Fore
SplineSet
480 250 m 17xdf80
 462.982 265.501 437 280 410 280 c 3
 357 280 300 242.442 300 176 c 3
 300 111.951 329.943 85 365 85 c 3
 409.601 85 459.5 120 480 155 c 9
 480 250 l 17xdf80
480 0 m 9xbf80
 480 50 l 17
 439.5 0 401.074 -10 340 -10 c 3xdf80
 268.993 -10 200 43.999 200 170 c 3
 200 282.804 273 370 390 370 c 3
 443 370 508.975 350.583 575 310 c 1
 575 100 l 17
 603.5 102 640 124 640 210 c 3
 640 398 469.5 420 390 420 c 3
 279.481 420 130 366.281 130 170 c 3
 130 -5.68555 270 -100 402 -100 c 3
 515.57 -100 595.5 -68 633.5 -22 c 9
 670 -102 l 17
 617.5 -152 529.5 -190 408 -190 c 3
 166 -190 30 -14.2998 30 170 c 3
 30 350.755 169.491 510 390 510 c 3
 557.512 510 735 426 735 210 c 3
 735 145 719.5 0 480 0 c 9xbf80
EndSplineSet
EndChar

StartChar: ampersand
Encoding: 38 38 97
Width: 660
VWidth: 0
Flags: W
HStem: -12 100<197.921 348.336> -10 21G<527.5 560> 500 21G<370 470> 610 100<230.615 368.464>
VStem: 30 120<132.983 258.305> 80 120<451.575 579.041> 370 100<500 603.801>
LayerCount: 2
Fore
SplineSet
455 230 m 1xb6
 471 262 485 301 490 340 c 1
 590 290 l 1
 585 245 565 198 540 155 c 1
 569 129 602 105 630 80 c 1
 540 -10 l 1x76
 515 13 490 37 465 60 c 1
 415 17 352 -12 280 -12 c 3
 104 -12 30 100 30 188 c 3xba
 30 278 69 326 127 379 c 1
 103 412 80 476 80 520 c 3
 80 657.179 169 710 290 710 c 3
 409 710 442 673 470 646 c 1
 470 500 l 1
 370 500 l 1
 370 598 l 1
 344 606 324 610 290 610 c 3
 247 610 200 579.808 200 520 c 7
 200 459.593 233 411.8 455 230 c 1xb6
202 291 m 1
 159 253 150 228 150 188 c 3
 150 145 192 88 280 88 c 3xba
 312 88 349 105 383 135 c 1
 202 291 l 1
EndSplineSet
EndChar
